<?xml version="1.0" encoding="UTF-8"?>
<svg id="Layer_1" data-name="Layer 1" xmlns="http://www.w3.org/2000/svg" xmlns:xlink="http://www.w3.org/1999/xlink" viewBox="0 0 60 60">
  <defs>
    <style>
      .cls-1 {
        fill: #fff;
      }

      .cls-1, .cls-2 {
        stroke-width: 0px;
      }

      .cls-2 {
        fill: url(#Degradado_sin_nombre_18);
      }
    </style>
    <linearGradient id="Degradado_sin_nombre_18" data-name="Degradado sin nombre 18" x1="8.79" y1="8.79" x2="51.21" y2="51.21" gradientUnits="userSpaceOnUse">
      <stop offset="0" stop-color="#5b67af"/>
      <stop offset="1" stop-color="#644a9e"/>
    </linearGradient>
  </defs>
  <circle class="cls-2" cx="30" cy="30" r="30"/>
  <path class="cls-1" d="M43.15,17.98c-2.49-1.15-5.12-1.96-7.82-2.41-.34.6-.73,1.4-1,2.05-2.87-.43-5.79-.43-8.66,0-.31-.7-.65-1.39-1.03-2.05-2.7.46-5.33,1.27-7.82,2.42-4.93,7.35-6.27,14.53-5.6,21.6,2.9,2.15,6.14,3.79,9.59,4.84.78-1.05,1.46-2.17,2.06-3.33-1.12-.42-2.2-.94-3.23-1.54.27-.2.53-.41.78-.61,6.07,2.87,13.11,2.87,19.18,0,.26.21.52.42.79.62-1.03.61-2.12,1.13-3.24,1.55.59,1.16,1.28,2.28,2.05,3.33,3.45-1.05,6.7-2.68,9.59-4.84.78-8.2-1.35-15.31-5.64-21.61ZM23.7,35.25c-1.87,0-3.4-1.71-3.4-3.82s1.5-3.83,3.4-3.83,3.42,1.71,3.41,3.82c-.02,2.11-1.5,3.83-3.41,3.83ZM36.29,35.25c-1.87,0-3.4-1.71-3.4-3.82s1.5-3.83,3.4-3.83,3.42,1.71,3.4,3.82c-.02,2.11-1.5,3.83-3.4,3.83Z"/>
</svg>