<?xml version="1.0" encoding="UTF-8"?>
<svg id="Layer_1" data-name="Layer 1" xmlns="http://www.w3.org/2000/svg" xmlns:xlink="http://www.w3.org/1999/xlink" viewBox="0 0 60 60">
  <defs>
    <style>
      .cls-1 {
        fill: #fff;
      }

      .cls-1, .cls-2 {
        stroke-width: 0px;
      }

      .cls-2 {
        fill: url(#Degradado_sin_nombre_10);
      }
    </style>
    <linearGradient id="Degradado_sin_nombre_10" data-name="Degradado sin nombre 10" x1="8.79" y1="8.79" x2="51.21" y2="51.21" gradientUnits="userSpaceOnUse">
      <stop offset="0" stop-color="#097cb8"/>
      <stop offset="1" stop-color="#3a59a8"/>
    </linearGradient>
  </defs>
  <circle class="cls-2" cx="30" cy="30" r="30"/>
  <g>
    <path class="cls-1" d="M17.98,22.97h5.16v16.57h-5.16v-16.57ZM20.56,14.74c1.65,0,2.99,1.34,2.99,2.98s-1.34,2.99-2.99,2.99-2.99-1.34-2.99-2.99,1.34-2.98,2.99-2.98"/>
    <path class="cls-1" d="M26.37,22.97h4.94v2.27h.07c.69-1.3,2.37-2.68,4.88-2.68,5.21,0,6.18,3.43,6.18,7.89v9.09h-5.15v-8.06c0-1.92-.04-4.39-2.68-4.39s-3.09,2.09-3.09,4.25v8.2h-5.15v-16.57Z"/>
  </g>
</svg>