<?xml version="1.0" encoding="UTF-8"?>
<svg id="Layer_1" data-name="Layer 1" xmlns="http://www.w3.org/2000/svg" xmlns:xlink="http://www.w3.org/1999/xlink" viewBox="0 0 60 60">
  <defs>
    <style>
      .cls-1 {
        fill: #010101;
      }

      .cls-1, .cls-2, .cls-3 {
        stroke-width: 0px;
      }

      .cls-2 {
        fill: #fff;
      }

      .cls-3 {
        fill: url(#Degradado_sin_nombre_6);
      }
    </style>
    <linearGradient id="Degradado_sin_nombre_6" data-name="Degradado sin nombre 6" x1="8.79" y1="8.79" x2="51.21" y2="51.21" gradientUnits="userSpaceOnUse">
      <stop offset="0" stop-color="#f8ec24"/>
      <stop offset="1" stop-color="#fdba37"/>
    </linearGradient>
  </defs>
  <circle class="cls-3" cx="30" cy="30" r="30"/>
  <path class="cls-2" d="M30,46.23c-1.32,0-2.65-.38-3.95-1.14-.51-.3-1.01-.63-1.51-.97l-.57-.38c-.43-.28-.91-.45-1.49-.54-.22-.03-.42-.05-.63-.05-.51,0-1.01.07-1.51.14l-.79.1h-.25c-.98.01-1.67-.57-1.72-1.45-.03-.59-.15-.85-1.24-.97-.65-.07-1.26-.33-1.75-.53-.85-.35-1.41-.86-1.72-1.54l-.08-.17v-1.01l.21-.24c.28-.33.65-.68,1.25-.8,2.17-.43,3.84-1.73,5.26-4.09.54-.9.58-1.16.57-1.23-.03-.04-.24-.22-1.27-.59-.21-.07-.31-.1-.4-.14-.5-.21-1.03-.44-1.51-.85-.64-.56-.9-1.3-.72-2.05.2-.81.89-1.46,1.8-1.68.19-.04.38-.07.57-.07.51,0,.95.15,1.35.28.13.04.25.08.37.12-.12-1.26-.13-2.56-.06-4.12.14-2.97,1.59-5.36,4.2-6.91,1.82-1.08,3.69-1.62,5.58-1.62s3.72.53,5.52,1.59c2.42,1.42,3.86,3.58,4.18,6.25.19,1.63.13,3.25.01,4.77.09-.03.19-.06.28-.09.41-.13.88-.28,1.4-.28.38,0,.74.08,1.09.23.87.38,1.42,1.17,1.4,2-.01.57-.3,1.13-.79,1.56-.49.43-1.07.66-1.58.87l-.62.24c-.22.08-.44.16-.65.26-.26.12-.33.21-.33.22,0,0,0,.09.09.29,1.34,2.84,3.13,4.43,5.64,5.02.6.14,1.06.42,1.38.86l.17.23v.99l-.09.18c-.35.71-.95,1.22-1.86,1.57-.74.28-1.38.53-2.08.57-.51.03-.62.14-.7.63-.11.78-.42,1.67-1.76,1.67-.13,0-.27,0-.44-.02-.22-.02-.44-.06-.67-.1-.48-.08-.91-.13-1.33-.13-1.11,0-2.04.32-2.85.97-.26.21-.55.39-.83.58-1.61,1.04-3.11,1.52-4.59,1.52Z"/>
  <path class="cls-1" d="M30,14.62c1.71,0,3.41.49,5.09,1.47,2.11,1.24,3.47,3.11,3.76,5.62.19,1.63.12,3.27-.01,4.9-.04.53.03.74.37.74.11,0,.25-.02.43-.06.62-.15,1.17-.41,1.76-.41.24,0,.49.04.75.16.48.21.91.67.89,1.2,0,.36-.22.7-.49.93-.42.36-.96.57-1.47.77-.39.16-.8.28-1.19.46-.79.37-1.02.86-.65,1.64,1.28,2.71,3.17,4.77,6.22,5.48.37.09.67.24.9.54v.51c-.29.59-.81.92-1.39,1.14-.6.23-1.19.48-1.83.52-.88.06-1.35.44-1.48,1.36-.11.74-.32.94-.92.94-.11,0-.23,0-.36-.02-.21-.02-.42-.06-.63-.09-.49-.09-.97-.14-1.43-.14-1.21,0-2.35.33-3.39,1.16-.28.23-.59.42-.9.61-1.32.85-2.65,1.3-4,1.3-1.16,0-2.33-.33-3.52-1.02-.7-.41-1.36-.87-2.03-1.32-.56-.37-1.16-.57-1.83-.67-.25-.04-.5-.05-.75-.05-.79,0-1.57.16-2.35.24-.07,0-.14.01-.21.01-.45,0-.84-.18-.86-.65-.07-1.32-.88-1.64-1.99-1.77-.52-.06-1.03-.27-1.52-.47-.53-.22-1.02-.54-1.27-1.1v-.51c.21-.24.43-.45.77-.52,2.68-.53,4.47-2.24,5.83-4.48,1.14-1.89.95-2.32-1.14-3.06-.12-.04-.24-.08-.36-.13-.45-.19-.9-.38-1.28-.71-.94-.82-.38-1.99.72-2.26.13-.03.25-.04.37-.04.66,0,1.26.38,1.93.47.07,0,.13.01.19.01.39,0,.54-.2.48-.68-.17-1.44-.16-2.89-.09-4.33.13-2.76,1.48-4.85,3.78-6.21,1.69-1,3.41-1.5,5.14-1.5M30,12.92c-2.04,0-4.06.59-6.01,1.74-2.86,1.7-4.46,4.33-4.61,7.6-.05,1.11-.06,2.09-.02,3-.24-.05-.5-.09-.78-.09-.26,0-.52.03-.77.09-1.22.29-2.15,1.18-2.42,2.3-.26,1.05.11,2.14.98,2.89.57.49,1.2.77,1.74,1,.11.05.23.09.35.12.24.08.43.16.57.21-.06.11-.13.24-.23.39-1.29,2.14-2.78,3.31-4.7,3.69-.97.19-1.52.83-1.73,1.07l-.41.48v1.51l.15.33c.4.88,1.11,1.53,2.17,1.97.54.23,1.21.51,1.99.59.24.03.39.06.47.08,0,.02,0,.05,0,.08.07,1.33,1.13,2.26,2.57,2.26.13,0,.26,0,.39-.02.26-.03.52-.06.78-.1.49-.07.96-.13,1.38-.13.16,0,.33,0,.5.03.47.07.83.2,1.16.41l.59.39c.5.33,1,.67,1.52.97,1.43.83,2.9,1.25,4.37,1.25,1.66,0,3.31-.53,4.92-1.58l.16-.1c.3-.19.6-.39.88-.61.66-.54,1.4-.78,2.32-.78.35,0,.73.04,1.14.11.29.05.54.09.79.11.19.01.35.02.5.02,1.01,0,2.28-.4,2.59-2.32.8-.07,1.48-.32,2.08-.55l.17-.07c1.12-.42,1.87-1.07,2.32-1.99l.17-.35v-1.47l-.34-.45c-.45-.6-1.08-.99-1.87-1.18-2.1-.49-3.64-1.8-4.83-4.09.06-.02.12-.04.18-.07.17-.06.35-.13.52-.2l.12-.05c.55-.22,1.23-.5,1.83-1.02.67-.58,1.06-1.37,1.08-2.18.03-1.18-.72-2.28-1.91-2.8-.46-.2-.94-.3-1.43-.3-.27,0-.52.03-.75.07.06-1.23.06-2.47-.09-3.73-.35-2.95-1.93-5.33-4.59-6.89-1.93-1.13-3.93-1.71-5.95-1.71h0Z"/>
</svg>