<?xml version="1.0" encoding="UTF-8"?>
<svg id="Layer_1" data-name="Layer 1" xmlns="http://www.w3.org/2000/svg" xmlns:xlink="http://www.w3.org/1999/xlink" viewBox="0 0 60 60">
  <defs>
    <style>
      .cls-1 {
        fill: url(#Degradado_sin_nombre_12);
      }

      .cls-1, .cls-2 {
        stroke-width: 0px;
      }

      .cls-2 {
        fill: #fff;
      }
    </style>
    <linearGradient id="Degradado_sin_nombre_12" data-name="Degradado sin nombre 12" x1="8.79" y1="8.79" x2="51.21" y2="51.21" gradientUnits="userSpaceOnUse">
      <stop offset="0" stop-color="#30b5e3"/>
      <stop offset=".8" stop-color="#676eb3"/>
      <stop offset="1" stop-color="#765ca7"/>
    </linearGradient>
  </defs>
  <circle class="cls-1" cx="30" cy="30" r="30"/>
  <path class="cls-2" d="M12.8,29.29s15.01-6.16,20.21-8.33c2-.87,8.76-3.64,8.76-3.64,0,0,3.12-1.21,2.86,1.73-.09,1.21-.78,5.47-1.47,10.06-1.04,6.51-2.17,13.62-2.17,13.62,0,0-.17,2-1.65,2.34-1.47.35-3.9-1.21-4.34-1.56-.35-.26-6.51-4.16-8.76-6.07-.61-.52-1.3-1.56.09-2.78,3.12-2.86,6.85-6.42,9.11-8.67,1.04-1.04,2.08-3.47-2.26-.52-6.16,4.25-12.23,8.24-12.23,8.24,0,0-1.39.87-3.99.09-2.6-.78-5.64-1.82-5.64-1.82,0,0-2.08-1.3,1.47-2.69h0Z"/>
</svg>