<?xml version="1.0" encoding="UTF-8"?>
<svg id="Layer_1" data-name="Layer 1" xmlns="http://www.w3.org/2000/svg" xmlns:xlink="http://www.w3.org/1999/xlink" viewBox="0 0 60 60">
  <defs>
    <style>
      .cls-1 {
        fill: url(#linear-gradient);
      }

      .cls-1, .cls-2, .cls-3, .cls-4 {
        stroke-width: 0px;
      }

      .cls-2 {
        fill: #34c0c9;
      }

      .cls-2, .cls-3, .cls-4 {
        fill-rule: evenodd;
      }

      .cls-3 {
        fill: #fff;
      }

      .cls-4 {
        fill: #ee2857;
      }
    </style>
    <linearGradient id="linear-gradient" x1="8.79" y1="8.79" x2="51.21" y2="51.21" gradientUnits="userSpaceOnUse">
      <stop offset="0" stop-color="#24114b"/>
      <stop offset=".96" stop-color="#020104"/>
      <stop offset="1" stop-color="#010101"/>
    </linearGradient>
  </defs>
  <circle class="cls-1" cx="30" cy="30" r="30"/>
  <path class="cls-4" d="M36.28,25.31c2.18,1.56,4.85,2.47,7.73,2.47v-5.55c-.55,0-1.09-.06-1.62-.17v4.37c-2.88,0-5.55-.92-7.73-2.47v11.32c0,5.66-4.59,10.25-10.26,10.25-2.11,0-4.08-.64-5.71-1.73,1.86,1.9,4.46,3.08,7.33,3.08,5.66,0,10.26-4.59,10.26-10.25v-11.32h0ZM38.29,19.72c-1.11-1.22-1.84-2.79-2-4.53v-.71h-1.54c.39,2.21,1.71,4.09,3.54,5.24h0ZM22.28,39.45c-.62-.82-.96-1.81-.96-2.84,0-2.59,2.1-4.69,4.69-4.69.48,0,.96.07,1.42.22v-5.67c-.54-.07-1.08-.1-1.62-.09v4.41c-.46-.15-.94-.22-1.42-.22-2.59,0-4.69,2.1-4.69,4.69,0,1.83,1.05,3.42,2.58,4.19Z"/>
  <path class="cls-3" d="M34.66,23.96c2.18,1.56,4.85,2.47,7.73,2.47v-4.37c-1.61-.34-3.03-1.18-4.11-2.35-1.83-1.14-3.15-3.03-3.54-5.24h-4.04v22.15c0,2.58-2.11,4.67-4.69,4.67-1.52,0-2.88-.73-3.73-1.85-1.53-.77-2.58-2.36-2.58-4.19,0-2.59,2.1-4.69,4.69-4.69.5,0,.97.08,1.42.22v-4.41c-5.56.11-10.04,4.66-10.04,10.25,0,2.79,1.11,5.32,2.92,7.17,1.63,1.1,3.6,1.73,5.71,1.73,5.66,0,10.26-4.59,10.26-10.25v-11.32Z"/>
  <path class="cls-2" d="M42.39,22.07v-1.18c-1.45,0-2.87-.4-4.11-1.17,1.09,1.19,2.53,2.02,4.11,2.35ZM34.74,14.48c-.04-.21-.07-.42-.09-.64v-.71h-5.58v22.15c0,2.58-2.11,4.67-4.69,4.67-.76,0-1.48-.18-2.11-.5.86,1.12,2.21,1.85,3.73,1.85,2.59,0,4.68-2.09,4.69-4.67V14.48h4.04ZM25.81,26.38v-1.26c-.47-.06-.94-.1-1.41-.1-5.66,0-10.26,4.59-10.26,10.25,0,3.55,1.8,6.68,4.55,8.52-1.81-1.85-2.92-4.38-2.92-7.17,0-5.59,4.47-10.13,10.04-10.25h0Z"/>
</svg>